# xmcd
#
# Track frame offsets: 
#        150
#        17047
#        34010
#        53792
#        70340
#        87282
#        105615
#        119515
#        138707
#        156832
#        177622
#        193500
#
# Disc length: 2798 seconds
#
# Revision: 1
# Processed by: cddbd v1.4PL0 Copyright (c) Steve Scherf et al.
# Submitted via: ExactAudioCopy v0.90b3
#
DISCID=a90aec0c
DTITLE=The Bellamy Brothers - Lonely Planet
DYEAR=1999
DGENRE=Country
TTITLE0=Houston (We Have A Problem)
TTITLE1=Highway Of Regret
TTITLE2=Come Back Gene And Roy
TTITLE3=Vertical Expression (Of Horizontal Desire)
TTITLE4=Kookaburra Blues
TTITLE5=Lonely Planet
TTITLE6=(Don't Put Me In) The Ex-Files (With Buck Owens)
TTITLE7=Old Country - New Country
TTITLE8=Shero
TTITLE9=Fountain Of Middle Age
TTITLE10=Forever Aint' Long Enough
TTITLE11=Vertical Expression (Of Horizontal Desire) (With Freddy Fende
TTITLE11=r)
EXTD=YEAR: 1999 ID3G: 2
EXTT0=
EXTT1=
EXTT2=
EXTT3=
EXTT4=
EXTT5=
EXTT6=
EXTT7=
EXTT8=
EXTT9=
EXTT10=
EXTT11=
PLAYORDER=
